<svg xmlns="http://www.w3.org/2000/svg" viewBox="0 0 128 128" role="img" aria-label="Binance">
  <rect width="128" height="128" rx="28" fill="#181A20"/>
  <path fill="#F0B90B" d="M64 18.5 82.7 37.2 71.8 48.1 64 40.3 56.2 48.1 45.3 37.2 64 18.5Zm26.4 26.4L109.1 63.6 90.4 82.3 79.5 71.4 87.3 63.6 79.5 55.8 90.4 44.9ZM64 86.9l7.8-7.8 10.9 10.9L64 108.7 45.3 90 56.2 79.1l7.8 7.8ZM37.6 44.9l10.9 10.9-7.8 7.8 7.8 7.8-10.9 10.9L18.9 63.6l18.7-18.7Z"/>
  <path fill="#F0B90B" d="m64 52.5 11.1 11.1L64 74.7 52.9 63.6 64 52.5Z"/>
</svg>